<?xml version="1.0" standalone="no"?>
<!DOCTYPE svg PUBLIC "-//W3C//DTD SVG 20010904//EN"
 "http://www.w3.org/TR/2001/REC-SVG-20010904/DTD/svg10.dtd">
<svg version="1.0" xmlns="http://www.w3.org/2000/svg"
 width="1400.000000pt" height="980.000000pt" viewBox="0 0 1400.000000 980.000000"
 preserveAspectRatio="xMidYMid meet">
<metadata>
Created by potrace 1.16, written by Peter Selinger 2001-2019
</metadata>
<g transform="translate(0.000000,980.000000) scale(0.100000,-0.100000)"
fill="#000000" stroke="none">
<path d="M4680 8793 c-63 -34 -90 -77 -90 -146 0 -100 36 -132 211 -187 104
-33 132 -46 153 -71 105 -125 -42 -279 -216 -227 -51 15 -104 75 -119 133 -8
33 -16 45 -30 45 -23 0 -23 -11 -4 -77 38 -128 191 -186 335 -126 68 28 110
91 110 168 0 92 -49 142 -178 181 -144 43 -170 54 -197 85 -50 60 -22 164 52
195 55 23 135 20 184 -8 41 -23 79 -79 79 -116 0 -24 8 -32 26 -25 30 11 11
89 -34 137 -67 71 -188 88 -282 39z"/>
<path d="M6845 8809 c-117 -36 -158 -194 -71 -276 26 -24 64 -41 153 -69 134
-41 169 -62 190 -112 58 -140 -141 -259 -284 -170 -35 21 -83 102 -83 141 0
11 -8 17 -21 17 -20 0 -21 -4 -15 -41 8 -53 27 -88 67 -127 42 -41 89 -56 169
-56 123 1 206 65 217 168 12 102 -39 161 -174 201 -142 42 -171 55 -199 88
-23 27 -26 38 -22 84 7 85 65 128 170 125 83 -2 152 -58 164 -133 5 -29 11
-39 25 -39 39 0 9 110 -42 157 -53 48 -162 67 -244 42z"/>
<path d="M8098 8805 c-55 -20 -86 -44 -117 -89 -48 -70 -65 -138 -64 -256 0
-124 23 -198 82 -263 53 -59 99 -77 201 -77 90 0 136 15 188 64 31 27 65 94
58 112 -10 25 -32 15 -45 -21 -24 -67 -120 -125 -208 -125 -86 0 -165 55 -204
143 -20 45 -24 68 -24 172 0 104 3 127 23 171 27 60 83 117 131 133 52 17 140
13 187 -8 40 -18 94 -76 94 -99 0 -13 11 -15 34 -6 14 5 13 11 -4 44 -38 75
-128 121 -234 119 -33 0 -77 -6 -98 -14z"/>
<path d="M8695 8808 c-80 -28 -118 -82 -118 -164 0 -101 37 -131 224 -188 106
-32 150 -61 166 -106 27 -76 -7 -145 -89 -180 -64 -27 -139 -23 -194 11 -36
22 -84 103 -84 142 0 10 -8 17 -20 17 -36 0 -23 -70 27 -142 84 -123 333 -107
394 25 35 78 20 160 -40 210 -19 15 -69 37 -119 52 -140 42 -170 55 -197 86
-48 58 -24 158 45 194 37 19 115 22 164 5 47 -15 94 -71 102 -120 5 -30 11
-40 25 -40 39 0 9 110 -42 157 -54 49 -167 68 -244 41z"/>
<path d="M5076 8802 c-14 -22 15 -31 109 -34 l100 -3 0 -318 0 -317 23 0 22 0
0 320 0 320 104 0 c94 0 104 2 102 18 -3 15 -22 17 -229 20 -124 1 -228 -1
-231 -6z"/>
<path d="M5744 8775 c-25 -61 -236 -609 -241 -627 -4 -13 0 -18 15 -18 17 0
28 19 62 107 23 59 46 111 52 114 6 4 74 6 152 5 l141 -1 44 -112 c34 -87 48
-113 63 -113 10 0 18 4 18 9 0 8 -193 522 -241 644 -16 39 -46 35 -65 -8z
m101 -205 c32 -85 60 -160 62 -166 4 -11 -213 -20 -246 -9 -17 5 -12 21 47
175 36 94 69 167 73 162 3 -4 32 -77 64 -162z"/>
<path d="M6020 8800 c0 -5 -1 -13 -2 -17 -2 -5 44 -10 102 -13 l105 -5 0 -318
0 -317 23 0 22 0 0 320 0 320 104 0 c94 0 104 2 102 18 -3 15 -23 17 -229 20
-149 1 -227 -1 -227 -8z"/>
<path d="M6555 8768 c-4 -24 -5 -176 -3 -338 l3 -295 23 -3 22 -3 0 340 c0
331 -1 341 -19 341 -16 0 -21 -9 -26 -42z"/>
<path d="M7217 8796 c-3 -8 -3 -17 0 -20 4 -3 51 -6 105 -6 l98 0 0 -321 0
-320 21 3 c21 3 22 5 23 318 l1 315 105 5 c85 4 105 8 105 20 0 22 -450 28
-458 6z"/>
<path d="M7755 8768 c-4 -24 -5 -176 -3 -338 3 -286 4 -295 23 -298 20 -3 20
2 18 325 -2 180 -3 334 -3 341 0 6 -6 12 -14 12 -10 0 -17 -15 -21 -42z"/>
<path d="M2346 8475 c-142 -145 -255 -269 -251 -275 3 -6 47 -10 101 -10 l94
0 0 -840 c0 -667 3 -840 13 -840 6 0 151 139 320 308 l308 308 0 532 0 531 97
3 c69 2 97 7 97 15 0 14 -502 533 -514 533 -5 0 -124 -119 -265 -265z m494
-20 l220 -220 -80 -3 -80 -3 0 -32 c0 -18 -1 -263 -3 -544 l-2 -513 -280 -280
c-153 -153 -281 -278 -283 -275 -2 2 -3 367 -3 812 1 444 -2 813 -7 820 -4 7
-38 13 -82 15 l-75 3 219 223 c121 122 224 221 228 220 5 -2 108 -102 228
-223z"/>
<path d="M10302 8397 c-45 -45 -82 -88 -82 -95 0 -28 38 -8 97 50 l63 62 0
-807 0 -807 23 0 c12 0 637 0 1388 -1 751 0 1370 -4 1377 -8 8 -4 -9 -27 -48
-66 -62 -61 -73 -85 -42 -85 17 0 182 157 182 174 0 14 -162 176 -176 176 -34
0 -21 -28 42 -91 l68 -69 -187 0 -187 0 0 35 c0 24 -5 35 -15 35 -8 0 -16 -7
-16 -15 -1 -8 -3 -19 -4 -25 -1 -5 -3 -14 -4 -20 -1 -7 -398 -10 -1168 -10
l-1168 0 310 310 c170 170 312 307 315 304 3 -3 5 -15 6 -27 3 -59 5 -67 19
-67 12 0 15 13 15 55 0 30 3 55 8 55 4 0 79 -56 167 -125 88 -68 165 -124 170
-124 6 0 100 119 209 265 110 145 205 269 213 275 10 9 13 2 13 -36 0 -39 3
-46 18 -43 13 3 17 13 17 50 0 25 3 44 6 42 4 -2 80 -94 170 -204 90 -110 169
-200 177 -200 12 0 126 227 402 801 86 180 107 215 122 211 16 -4 18 2 18 52
0 98 -22 75 -117 -121 -47 -98 -119 -248 -160 -333 -189 -395 -267 -550 -273
-548 -7 3 -139 162 -283 341 -39 48 -74 87 -78 87 -11 0 -69 -73 -268 -338
-101 -133 -186 -244 -190 -246 -3 -2 -76 50 -161 116 -85 66 -165 127 -178
136 -23 15 -28 11 -358 -319 l-334 -334 0 775 0 774 63 -62 c61 -60 87 -75 87
-49 0 15 -161 177 -175 177 -6 0 -47 -37 -93 -83z"/>
<path d="M3672 8313 c3 -17 27 -18 321 -19 l319 -1 -1 -204 c-1 -112 3 -210 7
-217 7 -10 110 -12 483 -10 413 3 474 5 474 18 0 13 -59 15 -456 18 l-456 2
-7 42 c-4 23 -6 110 -6 192 1 83 1 161 0 174 l0 22 -341 0 c-319 0 -340 -1
-337 -17z"/>
<path d="M9254 8010 l-108 -110 -406 -2 c-352 -3 -405 -5 -405 -18 0 -13 53
-15 410 -18 l409 -2 118 117 c65 65 118 123 118 130 0 31 -34 6 -136 -97z"/>
<path d="M1052 7746 c-139 -140 -252 -261 -252 -270 0 -14 15 -16 95 -16 l95
0 0 -475 0 -475 323 2 322 3 3 473 2 472 95 0 c62 0 95 4 95 11 0 15 -500 529
-515 529 -6 0 -125 -114 -263 -254z m453 12 c105 -106 205 -209 223 -229 l33
-36 -63 3 c-109 5 -98 58 -98 -477 l0 -469 -285 0 -285 0 0 470 0 470 -32 1
c-18 1 -54 2 -80 3 -27 0 -48 2 -48 4 0 6 434 452 440 452 3 0 91 -87 195
-192z"/>
<path d="M8844 7559 c-4 -7 49 -67 127 -145 l134 -134 -245 -245 c-135 -135
-248 -245 -252 -245 -4 0 -43 29 -87 64 -299 242 -718 442 -1102 526 -207 45
-367 62 -593 61 -444 -2 -800 -84 -1191 -276 -271 -133 -474 -277 -694 -490
-452 -440 -729 -996 -806 -1621 -21 -167 -21 -479 0 -649 139 -1129 960 -2051
2060 -2315 571 -137 1171 -86 1709 145 796 341 1404 1077 1580 1912 76 363 78
797 5 1142 -76 356 -230 712 -429 991 l-48 67 257 257 256 256 130 -130 c71
-71 135 -130 142 -130 11 0 13 97 11 483 l-3 482 -477 3 c-343 1 -479 -1 -484
-9z m516 -59 l410 0 0 -411 0 -412 -25 27 c-14 15 -25 32 -25 37 0 6 -4 8 -8
5 -10 -6 -72 60 -72 76 0 5 -4 6 -10 3 -5 -3 -18 8 -28 24 -10 17 -22 28 -26
23 -4 -4 -7 0 -6 8 4 27 0 40 -11 40 -8 0 -8 -5 1 -15 24 -28 -2 -15 -36 19
-38 38 -42 48 -16 40 14 -5 14 -4 2 4 -8 6 -18 8 -22 6 -8 -5 -78 58 -78 70 0
3 8 3 18 0 14 -5 14 -4 2 4 -8 6 -18 8 -22 6 -8 -5 -78 58 -78 70 0 3 8 3 18
0 14 -5 14 -4 2 4 -8 6 -18 8 -22 6 -8 -5 -78 58 -78 70 0 3 8 3 18 0 14 -5
14 -4 2 4 -8 6 -18 8 -23 5 -10 -6 -53 38 -49 50 1 5 -2 6 -6 3 -10 -6 -112
99 -112 115 0 6 -4 8 -8 5 -10 -6 -72 60 -72 77 0 6 -3 7 -7 4 -8 -9 -63 42
-63 57 0 6 5 3 11 -6 9 -17 40 -18 419 -18z m-2195 -116 c418 -52 843 -214
1185 -452 103 -72 220 -166 220 -177 0 -6 -400 -411 -890 -900 l-890 -890
-155 155 -155 155 490 490 c269 270 490 496 490 503 0 6 -6 12 -13 12 -6 0
-230 -218 -497 -485 -267 -267 -489 -485 -495 -485 -6 0 -82 72 -170 160
l-160 160 249 249 c195 195 247 253 242 267 -6 15 -56 -31 -261 -236 l-255
-255 -145 145 -145 145 -810 -810 c-445 -445 -811 -807 -814 -804 -11 11 -28
230 -29 387 l-2 172 444 444 c258 258 441 449 437 455 -4 6 -13 11 -19 11 -7
0 -199 -187 -427 -415 -228 -228 -417 -415 -421 -415 -9 0 10 145 36 275 132
659 491 1228 1030 1630 553 413 1238 594 1930 509z m1941 -1247 c342 -550 472
-1218 364 -1854 -65 -380 -207 -733 -424 -1053 l-71 -104 -5 1403 c-3 927 -8
1405 -15 1408 -6 2 -154 -141 -330 -317 l-320 -320 -2 -1398 c-2 -768 -3
-1400 -3 -1404 0 -25 -412 -241 -504 -264 l-26 -6 0 1246 c0 1133 -1 1247 -16
1253 -12 4 -105 -83 -335 -313 l-319 -319 0 -1012 c0 -756 -3 -1014 -12 -1019
-15 -10 -477 -10 -505 0 l-23 7 0 967 0 967 -325 325 c-259 258 -327 322 -335
310 -6 -9 -10 -471 -10 -1209 0 -657 -2 -1197 -5 -1200 -13 -12 -300 124 -442
210 l-83 50 0 889 c0 735 -2 889 -13 893 -9 3 -140 -121 -335 -316 l-322 -322
-2 -253 -3 -254 -51 74 c-72 105 -144 227 -205 351 l-54 107 718 718 717 717
483 -483 c265 -265 487 -482 492 -482 6 0 503 493 1105 1095 l1094 1094 34
-47 c18 -26 58 -87 88 -135z m-181 -3065 c-3 -7 -9 -10 -15 -7 -5 3 -7 0 -5
-7 3 -8 -8 -24 -25 -36 -16 -13 -30 -28 -30 -35 0 -17 -174 -197 -190 -197 -8
0 -11 -3 -7 -6 3 -3 -18 -26 -46 -51 -29 -24 -63 -54 -77 -66 -50 -44 -131
-102 -134 -97 -2 3 -13 -6 -25 -20 l-20 -25 -1 1377 0 1377 288 288 287 289 3
-1386 c1 -762 0 -1391 -3 -1398z m-1212 -863 c-34 -30 -452 -129 -545 -129
l-28 0 0 998 c0 956 1 1000 18 1015 10 10 22 15 25 12 4 -3 5 -2 3 1 -3 3 116
126 262 272 l267 267 3 -1214 c1 -668 -1 -1218 -5 -1222z m-1478 2061 l285
-285 0 -952 0 -953 -27 0 c-72 0 -306 51 -473 103 l-75 24 -5 1176 c-3 647 -1
1176 3 1174 4 -1 136 -130 292 -287z m-925 -906 l0 -826 -32 20 c-18 10 -32
24 -31 30 2 6 -4 9 -12 6 -8 -4 -15 -1 -15 4 0 6 -12 17 -27 25 -16 7 -27 20
-25 28 2 8 0 11 -4 7 -9 -10 -52 22 -131 95 -47 45 -61 63 -51 69 9 6 7 8 -7
6 -12 -2 -19 2 -17 10 1 8 -1 11 -6 8 -12 -7 -64 48 -55 59 5 4 3 5 -4 1 -7
-4 -41 28 -87 81 l-76 88 0 270 0 270 287 287 c159 159 289 288 290 288 2 0 3
-372 3 -826z"/>
<path d="M3490 6985 c0 -13 31 -15 218 -16 119 -1 229 -1 245 -1 15 0 27 -2
27 -6 0 -4 -287 -294 -638 -645 l-637 -637 -642 0 -643 0 -2 -462 -3 -461 -64
-13 c-145 -30 -255 -116 -318 -250 -82 -171 -46 -368 90 -502 177 -174 448
-172 622 3 218 217 159 573 -118 710 -40 20 -95 38 -124 42 l-53 6 0 188 0
189 318 2 c274 3 317 5 317 18 0 13 -43 15 -317 18 l-318 2 0 105 c0 77 3 105
13 105 6 1 206 1 442 1 237 -1 440 2 453 5 25 7 29 29 7 38 -8 3 -216 5 -462
5 l-448 0 -3 105 -3 106 633 0 633 0 645 645 645 645 5 -242 c5 -221 7 -243
23 -246 16 -3 17 15 17 277 l0 281 -280 0 c-242 0 -280 -2 -280 -15z m-1923
-2296 c154 -58 257 -189 270 -346 17 -210 -127 -396 -336 -435 -122 -23 -262
22 -354 114 -142 142 -156 380 -33 532 51 62 134 122 196 141 71 22 189 19
257 -6z"/>
<path d="M10167 6353 c-4 -3 -7 -584 -7 -1290 0 -1166 1 -1284 16 -1281 13 2
16 22 17 118 l2 115 1425 5 c1603 6 1462 -2 1518 82 26 39 27 48 30 182 4 157
-5 205 -46 249 -57 61 46 57 -1491 57 -775 0 -1417 3 -1425 6 -13 5 -16 23
-16 95 l0 89 1020 0 c984 0 1022 1 1058 19 45 23 77 56 91 94 6 16 11 96 11
178 0 174 -11 210 -82 256 l-42 28 -1025 5 -1026 5 -1 77 c-1 42 2 81 5 87 5
7 243 11 782 13 l775 3 41 27 c69 45 83 89 83 258 0 169 -14 213 -83 258 l-41
27 -784 3 -784 2 2 108 c1 59 2 113 1 120 -1 13 -14 16 -24 5z m1592 -291 c70
-35 76 -54 76 -232 0 -178 -6 -197 -76 -232 -31 -17 -90 -18 -795 -18 -640 0
-763 2 -767 14 -7 18 -8 466 -1 477 3 5 348 9 767 9 706 0 765 -1 796 -18z
m478 -753 c83 -31 109 -102 100 -275 -6 -121 -16 -152 -65 -189 -27 -20 -45
-20 -1055 -23 l-1028 -2 2 242 c0 134 3 246 6 251 7 12 2007 9 2040 -4z m813
-771 c69 -36 80 -67 80 -228 0 -153 -11 -188 -69 -227 l-34 -23 -1412 0 -1412
0 -7 38 c-8 50 -8 447 1 455 3 4 637 7 1408 7 l1401 0 44 -22z"/>
<path d="M3294 5366 c-126 -41 -214 -162 -214 -295 0 -72 12 -115 49 -173 93
-147 308 -188 443 -85 93 71 132 151 130 265 -3 117 -67 218 -174 273 -53 28
-173 35 -234 15z m211 -50 c56 -26 119 -90 143 -145 22 -53 20 -156 -5 -212
-45 -101 -142 -163 -253 -162 -295 2 -375 402 -106 524 60 27 157 25 221 -5z"/>
<path d="M2889 4413 c-36 -63 -480 -832 -576 -996 -57 -98 -101 -182 -98 -188
4 -5 281 -9 706 -9 622 0 699 2 699 15 0 9 -40 84 -88 168 -49 84 -151 260
-227 392 -76 132 -168 292 -205 355 -37 63 -89 154 -116 202 -28 51 -55 88
-64 88 -9 0 -23 -12 -31 -27z m123 -188 c134 -233 349 -606 455 -788 57 -98
103 -179 103 -180 0 -1 -292 -2 -650 -2 -357 0 -650 1 -650 3 0 3 371 647 621
1079 18 32 27 39 35 30 6 -7 44 -70 86 -142z"/>
<path d="M12188 3388 c-200 -342 -259 -449 -253 -458 8 -14 631 -14 640 0 8
14 -300 544 -318 548 -10 2 -34 -30 -69 -90z m198 -190 c70 -123 129 -226 131
-230 2 -5 -115 -8 -262 -8 l-266 0 12 23 c27 51 251 437 254 437 2 0 60 -100
131 -222z"/>
<path d="M10157 3355 c-8 -20 -9 -748 -1 -769 5 -14 37 -16 300 -16 l294 0 0
-184 c0 -161 -2 -185 -16 -190 -9 -4 -402 -6 -873 -6 -471 0 -864 0 -873 0
-16 0 -18 -20 -20 -232 l-3 -233 -292 -3 -293 -2 -1 -363 c-2 -366 -2 -406 0
-420 1 -4 277 -6 614 -5 l612 3 3 393 2 392 -22 1 c-13 0 -148 0 -300 0 l-278
-1 0 220 0 220 870 0 870 0 0 -220 0 -220 -291 1 c-233 1 -293 -2 -300 -12
-10 -17 -11 -750 -1 -767 7 -10 137 -12 618 -10 l609 3 3 393 2 392 -300 0
-300 0 0 220 0 220 870 0 870 0 0 -219 0 -220 -291 1 c-160 0 -295 -4 -300 -9
-5 -5 -8 -177 -7 -394 l3 -384 615 0 615 0 3 384 c1 212 -1 388 -6 393 -4 4
-138 8 -297 9 l-290 2 -5 234 -5 234 -885 2 -885 2 -3 187 -2 188 297 2 298 3
0 395 0 395 -611 3 c-530 2 -613 0 -617 -13z m1193 -385 l0 -360 -580 0 -580
0 0 360 0 360 580 0 580 0 0 -360z m-2395 -1640 c195 -195 355 -358 355 -362
0 -5 -62 -8 -137 -8 l-138 0 -312 313 -313 312 0 46 c0 25 2 48 5 50 2 3 45 5
95 5 l90 -1 355 -355z m303 47 l313 -312 -3 -50 -3 -50 -90 -1 -90 -2 -357
357 c-197 195 -358 359 -358 363 0 4 62 7 138 7 l137 0 313 -312z m174 176
l139 -138 -3 -143 -3 -142 -278 278 -278 278 142 2 142 3 139 -138z m136 30
c1 -57 -1 -103 -5 -103 -9 0 -203 192 -203 201 0 3 46 6 103 5 l102 -1 3 -102z
m807 -258 l0 -360 -90 0 -90 0 -3 350 c-1 192 0 355 2 360 2 7 40 11 92 10
l89 0 0 -360z m253 3 l2 -356 -27 -6 c-16 -4 -63 -5 -105 -5 l-78 2 0 357 c0
196 2 359 6 362 3 3 49 5 102 4 l97 -1 3 -357z m232 356 c13 -3 15 -51 13
-361 l-2 -358 -98 -2 c-66 -1 -100 2 -105 10 -4 7 -8 168 -8 359 0 268 3 348
13 352 14 6 164 6 187 0z m263 -9 c10 -23 8 -688 -2 -703 -6 -9 -34 -12 -107
-10 l-99 3 -2 349 c-2 223 1 354 7 361 7 8 45 13 104 14 76 1 95 -1 99 -14z
m225 -347 l2 -356 -22 -6 c-29 -7 -116 -7 -145 0 l-23 6 0 352 c0 194 3 356 7
360 4 4 46 5 93 3 l85 -3 3 -356z m1780 310 l3 -48 -570 0 c-314 0 -574 -1
-578 -2 -10 -4 -16 69 -9 88 5 12 94 14 578 12 l573 -3 3 -47z m2 -153 l0 -55
-570 0 c-313 0 -573 0 -577 0 -12 0 -16 102 -5 109 6 3 267 5 581 3 l571 -2 0
-55z m-4431 -239 c150 -150 269 -276 265 -279 -5 -2 -69 -4 -141 -3 l-133 1
-140 140 -140 140 0 137 c0 76 3 138 8 138 4 0 130 -123 281 -274z m4429 82
l3 -58 -571 0 c-313 0 -573 -1 -577 -2 -5 -2 -9 25 -11 60 l-3 62 578 -2 578
-3 3 -57z m0 -160 l3 -58 -581 0 -580 0 0 60 0 60 578 -2 577 -3 3 -57z
m-4513 -198 c-5 -8 -143 -12 -177 -5 l-28 7 0 106 0 107 104 -104 c58 -58 103
-107 101 -111z m4510 45 l0 -50 -575 0 -575 0 -3 53 -3 52 578 -2 578 -3 0
-50z"/>
<path d="M10973 2998 l-223 -223 -109 109 c-76 76 -114 107 -125 103 -9 -4
-16 -10 -16 -14 0 -5 56 -64 125 -133 l125 -124 240 239 c132 132 239 244 237
250 -10 30 -51 -4 -254 -207z"/>
<path d="M2054 2967 c-45 -77 -159 -276 -319 -552 -139 -240 -154 -268 -149
-277 3 -4 603 -8 1335 -8 1176 0 1329 2 1329 15 0 8 -58 115 -129 238 -71 122
-185 319 -253 437 l-125 215 -824 2 -824 3 -41 -73z m1055 -379 l412 -413
-273 -3 -273 -2 -415 415 -415 415 276 0 276 0 412 -412z m611 -3 l415 -415
-275 0 -275 0 -415 415 -415 415 275 0 275 0 415 -415z m77 280 c41 -71 145
-251 230 -400 86 -148 157 -273 160 -277 2 -5 3 -8 1 -8 -2 0 -188 185 -413
410 l-410 410 178 -2 179 -3 75 -130z m-1277 -290 l405 -405 -280 0 -280 0
-229 229 c-197 197 -228 233 -220 249 20 43 189 331 194 332 3 0 187 -182 410
-405z m-415 -195 l210 -210 -339 0 -338 0 22 38 c37 62 172 294 198 340 13 23
27 42 30 42 4 0 102 -94 217 -210z"/>
<path d="M1456 1933 c-4 -9 -31 -58 -60 -107 -296 -502 -478 -828 -469 -837 5
-5 874 -8 2294 -7 2022 3 2284 5 2284 18 0 13 -41 15 -300 18 l-300 3 -75 131
c-41 72 -76 136 -78 142 -2 8 50 10 169 8 181 -4 219 0 219 22 0 23 -25 26
-228 26 l-197 0 -52 93 c-29 50 -106 184 -171 297 l-118 205 -1456 3 c-1360 2
-1456 1 -1462 -15z m3149 -468 l253 -440 -1935 -3 c-1065 -1 -1938 0 -1940 2
-2 2 43 84 100 182 57 99 157 271 222 384 65 113 133 231 152 263 l34 57 1430
-2 1430 -3 254 -440z"/>
<path d="M1545 1655 c-81 -28 -144 -135 -128 -217 30 -160 211 -229 330 -125
112 98 91 266 -41 332 -56 28 -102 31 -161 10z m145 -45 c60 -30 85 -73 85
-145 0 -74 -25 -113 -90 -145 -68 -33 -127 -22 -181 35 -67 70 -68 158 -2 222
58 56 121 67 188 33z"/>
<path d="M2066 1655 c-78 -28 -129 -103 -128 -191 1 -172 200 -264 329 -151
112 98 91 266 -41 332 -56 28 -102 31 -160 10z m170 -60 c96 -74 81 -219 -29
-274 -38 -19 -56 -22 -93 -16 -85 12 -153 104 -139 187 8 45 55 104 100 125
46 21 118 11 161 -22z"/>
<path d="M2592 1659 c-47 -14 -116 -86 -129 -135 -50 -196 174 -342 324 -211
168 148 22 408 -195 346z m164 -64 c87 -67 85 -201 -5 -261 -52 -34 -93 -40
-146 -20 -80 31 -127 116 -106 194 11 40 60 94 101 111 43 18 115 7 156 -24z"/>
<path d="M3115 1660 c-42 -13 -99 -63 -119 -104 -33 -71 -13 -190 40 -237 86
-75 199 -73 280 4 128 123 51 332 -126 343 -25 2 -58 -1 -75 -6z m158 -63
c104 -79 82 -237 -39 -283 -156 -60 -289 137 -176 260 58 62 151 72 215 23z"/>
<path d="M3637 1660 c-80 -24 -138 -106 -138 -195 0 -218 282 -278 383 -82 28
56 22 140 -14 195 -47 70 -149 106 -231 82z m151 -57 c52 -39 67 -70 67 -137
0 -53 -4 -68 -27 -98 -17 -22 -46 -43 -74 -54 -40 -15 -52 -16 -93 -5 -153 41
-168 249 -21 310 37 16 117 7 148 -16z"/>
<path d="M4157 1660 c-121 -36 -177 -190 -109 -299 102 -167 356 -105 370 89
11 146 -122 252 -261 210z m151 -57 c52 -39 67 -70 67 -137 0 -53 -4 -68 -27
-98 -93 -123 -287 -59 -289 95 -1 23 4 53 9 67 12 31 58 75 92 89 37 16 117 7
148 -16z"/>
<path d="M6032 1642 c-11 -8 -14 -63 -13 -273 0 -145 0 -272 1 -282 0 -16 18
-17 283 -15 l282 3 3 133 3 132 279 0 280 0 5 -27 c30 -138 153 -243 285 -243
102 0 207 67 257 164 21 41 27 65 27 121 0 190 -158 319 -345 281 -105 -22
-184 -96 -215 -203 l-15 -53 -280 0 -279 0 0 130 0 130 -244 0 c-134 0 -256 2
-272 5 -16 3 -35 2 -42 -3z m518 -283 l0 -249 -250 0 -250 0 0 243 c0 134 3
247 7 250 3 4 116 6 250 6 l243 -1 0 -249z m990 224 c45 -18 96 -68 121 -116
60 -115 16 -257 -100 -325 -39 -23 -58 -27 -121 -27 -63 0 -82 4 -121 27 -85
50 -137 147 -126 238 14 114 90 195 212 223 28 7 94 -3 135 -20z"/>
</g>
</svg>
